<?xml version="1.0" encoding="UTF-8"?>
<svg id="_Слой_1" data-name="Слой_1" xmlns="http://www.w3.org/2000/svg" version="1.1" viewBox="0 0 110 135">
  <!-- Generator: Adobe Illustrator 29.8.2, SVG Export Plug-In . SVG Version: 2.1.1 Build 3)  -->
  <path d="M83.71,82.13H26.28c-2.17,0-3.93-1.75-3.94-3.92v-32.77c0-2.18,1.77-3.94,3.94-3.95h13.54v-6.64c0-1.64,1.33-2.97,2.98-2.97h24.4c1.64,0,2.98,1.33,2.98,2.97v6.64h13.54c2.18,0,3.94,1.77,3.94,3.95v32.77c-.01,2.17-1.78,3.92-3.95,3.92h0ZM26.28,42.69c-1.52,0-2.74,1.23-2.74,2.75v32.77c0,1.52,1.23,2.74,2.74,2.74h57.43c1.52,0,2.74-1.23,2.74-2.74v-32.77c0-1.52-1.23-2.74-2.74-2.75h-14.74v-7.84c0-.98-.8-1.77-1.78-1.77h-24.4c-.98,0-1.77.79-1.78,1.77v7.84h-14.74ZM66.57,42.69h-23.15v-5.9c0-.72.58-1.3,1.3-1.3h20.54c.72,0,1.3.58,1.3,1.3v5.9ZM44.63,41.49h20.74v-4.7c0-.06-.05-.11-.1-.11h-20.54c-.05,0-.1.05-.1.11v4.7Z"/>
</svg>