<svg id="_Слой_1" data-name=" Слой 1" xmlns="http://www.w3.org/2000/svg" viewBox="0 0 8504.84 2645.88">
  <path d="M1667.45,243.85h234.41l31.64,38.83-602.09,1922.28-287.62-3.84-21.57-34.04L1667.45,243.84h0Z" fill="#549af2"/>
  <path d="M1933.5,937.21l1167.5-1.8-10.06,1165.7-234.65-1.44,5.39-961.95-682.03,1.44-7.55,952.25-233.21,1.44-5.39-1155.64h0Z" fill="#111827"/>
  <path d="M3320.55,929.67l279.21,1.44,319.27,632.01,277.23-634.89,322.69-2.87,2.87,32.34-567.75,1132.28-304.36-1.44,157.39-268.79-490.86-856.3,4.31-33.78h0Z" fill="#111827"/>
  <path d="M5005.86,932.54l805.28-4.31-1.44,209.5-765.03,4.31c-54.98,0-84.45,50.67-84.45,104.21l-7.55,530.75c0,75.46,38.81,117.14,114.63,117.14l754.25-4.31v211.29l-776.89,2.87c-261.6,0-358.62-117.86-358.62-313.34l4.67-522.48c2.87-201.95,99.9-335.62,315.14-335.62h.01Z" fill="#111827"/>
  <path d="M6693.32,1406.87l268.43-472.89,350.25-5.75,4.4,5.86-365.08,599.27,485.69,565.91-362.8,3.29-386.65-496.97-300.41-4.31-2.87,495.53-294.66,1.44,1.44-1165.7,288.55,1.44,2.87,484.39" fill="#111827"/>
  <path d="M7569.82,905.29l935.02,489.37v266.8l-908.48,448.59-40.78-29.97,5.9-286.45,559.14-268.76-550.79-334.6v-284.98h0Z" fill="#549af2"/>
  <path d="M935.02,2110.05L0,1620.68v-266.8l908.48-448.59,40.78,29.97-5.9,286.45-559.14,268.76,550.79,334.6v284.98h0Z" fill="#549af2"/>
</svg>
