<svg width="64" height="64" viewBox="0 0 64 64" fill="none" xmlns="http://www.w3.org/2000/svg">
<path d="M47.4098 15.6721C43.2946 11.4885 37.8143 9.1875 31.9902 9.1875C19.9687 9.1875 10.1866 19.1086 10.1866 31.3008C10.1866 35.1955 11.1884 39.0006 13.0937 42.3574L10 53.8125L21.5598 50.7346C24.742 52.4977 28.3268 53.424 31.9804 53.424H31.9902C44.0018 53.424 54 43.5029 54 31.3107C54 25.4039 51.525 19.8557 47.4098 15.6721V15.6721ZM31.9902 49.6986C28.7295 49.6986 25.5375 48.8121 22.758 47.1387L22.1 46.7402L15.2446 48.5631L17.0714 41.7797L16.6393 41.0824C14.8223 38.1539 13.8696 34.7771 13.8696 31.3008C13.8696 21.1705 22.0018 12.9229 32 12.9229C36.842 12.9229 41.3893 14.8354 44.8071 18.3117C48.225 21.7881 50.3268 26.4 50.317 31.3107C50.317 41.451 41.9786 49.6986 31.9902 49.6986V49.6986ZM41.9295 35.9326C41.3893 35.6537 38.708 34.3189 38.2071 34.1396C37.7063 33.9504 37.3429 33.8607 36.9795 34.4186C36.6161 34.9764 35.575 36.2115 35.2509 36.59C34.9366 36.9586 34.6125 37.0084 34.0723 36.7295C30.8705 35.1059 28.7688 33.8309 26.6571 30.1553C26.0973 29.1791 27.217 29.2488 28.258 27.1371C28.4348 26.7686 28.3464 26.4498 28.2089 26.1709C28.0714 25.892 26.9812 23.1727 26.5295 22.067C26.0875 20.9912 25.6357 21.1406 25.3018 21.1207C24.9875 21.1008 24.6241 21.1008 24.2607 21.1008C23.8973 21.1008 23.308 21.2402 22.8071 21.7881C22.3062 22.3459 20.9018 23.6807 20.9018 26.4C20.9018 29.1193 22.8563 31.749 23.1214 32.1176C23.3964 32.4861 26.9616 38.0643 32.4321 40.4648C35.8893 41.9789 37.2446 42.1084 38.9732 41.8494C40.0241 41.69 42.1946 40.5146 42.6464 39.2197C43.0982 37.9248 43.0982 36.8191 42.9607 36.59C42.833 36.341 42.4696 36.2016 41.9295 35.9326Z" fill="black"/>
</svg>
